<?xml version="1.0" encoding="UTF-8"?>
<svg version="1.1" xmlns="http://www.w3.org/2000/svg" width="121" height="124">
<path d="M0 0 C39.93 0 79.86 0 121 0 C121 40.92 121 81.84 121 124 C81.07 124 41.14 124 0 124 C0 83.08 0 42.16 0 0 Z " fill="#F6F6F6" transform="translate(0,0)"/>
<path d="M0 0 C2.14576637 -0.02685938 4.29162645 -0.04633088 6.4375 -0.0625 C7.63246094 -0.07410156 8.82742187 -0.08570312 10.05859375 -0.09765625 C13 0 13 0 14 1 C14.07258946 3.18639453 14.08373783 5.37500389 14.0625 7.5625 C14.05347656 8.76003906 14.04445313 9.95757812 14.03515625 11.19140625 C14.02355469 12.11824219 14.01195313 13.04507813 14 14 C12.68 14.33 11.36 14.66 10 15 C9.01 12.525 9.01 12.525 8 10 C7.35973877 10.67168213 6.71947754 11.34336426 6.05981445 12.03540039 C3.67694576 14.52053072 1.2811261 16.99156917 -1.12475586 19.4543457 C-2.16314611 20.52290946 -3.19608783 21.59679613 -4.22338867 22.67602539 C-5.70131131 24.22673804 -7.19778723 25.75723747 -8.69921875 27.28515625 C-9.59471436 28.21207275 -10.49020996 29.13898926 -11.4128418 30.09399414 C-14 32 -14 32 -16.609375 31.9921875 C-19.201342 30.91643649 -20.61021978 29.85294957 -22.55078125 27.83984375 C-23.16630859 27.21142578 -23.78183594 26.58300781 -24.41601562 25.93554688 C-25.04185547 25.27619141 -25.66769531 24.61683594 -26.3125 23.9375 C-26.95767578 23.27427734 -27.60285156 22.61105469 -28.26757812 21.92773438 C-29.85447018 20.29382329 -31.43126328 18.65131853 -33 17 C-36.55038651 19.93545244 -39.99210371 22.90398489 -43.16796875 26.24609375 C-43.66876953 26.77267578 -44.16957031 27.29925781 -44.68554688 27.84179688 C-45.70602483 28.92597176 -46.71881527 30.01742353 -47.72460938 31.11523438 C-49.23046875 32.68359375 -49.23046875 32.68359375 -52 35 C-54.36328125 34.84765625 -54.36328125 34.84765625 -56 34 C-55.16979577 27.84375715 -49.36261481 23.85100921 -45.1875 19.6875 C-44.27162109 18.74326172 -43.35574219 17.79902344 -42.41210938 16.82617188 C-41.52716797 15.93865234 -40.64222656 15.05113281 -39.73046875 14.13671875 C-38.91989014 13.31905029 -38.10931152 12.50138184 -37.27416992 11.65893555 C-35 10 -35 10 -32.92016602 10.04394531 C-30.69303198 11.15284002 -29.28224566 12.37658085 -27.546875 14.16015625 C-26.928125 14.78857422 -26.309375 15.41699219 -25.671875 16.06445312 C-25.03765625 16.72380859 -24.4034375 17.38316406 -23.75 18.0625 C-22.77546875 19.05733398 -22.77546875 19.05733398 -21.78125 20.07226562 C-20.1805324 21.70829317 -18.58723807 23.35090912 -17 25 C-13.63664406 23.54254576 -11.45465995 21.68882146 -8.890625 19.0859375 C-8.13652344 18.32539062 -7.38242188 17.56484375 -6.60546875 16.78125 C-5.82816406 15.9871875 -5.05085938 15.193125 -4.25 14.375 C-3.45722656 13.57320312 -2.66445312 12.77140625 -1.84765625 11.9453125 C0.10614493 9.96797154 2.05512103 7.98611091 4 6 C1.525 5.01 1.525 5.01 -1 4 C-0.67 2.68 -0.34 1.36 0 0 Z " fill="#44E085" transform="translate(82,27)"/>
<path d="M0 0 C0.721875 0.00257812 1.44375 0.00515625 2.1875 0.0078125 C2.909375 0.00523438 3.63125 0.00265625 4.375 0 C6.1875 0.1328125 6.1875 0.1328125 7.1875 1.1328125 C7.28853255 3.93274847 7.32720088 6.70749894 7.3203125 9.5078125 C7.32126923 10.34747559 7.32222595 11.18713867 7.32321167 12.05224609 C7.32389348 13.83105545 7.32203917 15.60986727 7.31787109 17.38867188 C7.31252283 20.12115026 7.31781605 22.85346426 7.32421875 25.5859375 C7.32355797 27.3098962 7.32227681 29.03385479 7.3203125 30.7578125 C7.32233673 31.58071777 7.32436096 32.40362305 7.32644653 33.25146484 C7.30245054 39.01786196 7.30245054 39.01786196 6.1875 40.1328125 C4.375 40.265625 4.375 40.265625 2.1875 40.2578125 C1.465625 40.26039062 0.74375 40.26296875 0 40.265625 C-1.8125 40.1328125 -1.8125 40.1328125 -2.8125 39.1328125 C-2.91353255 36.33287653 -2.95220088 33.55812606 -2.9453125 30.7578125 C-2.94626923 29.91814941 -2.94722595 29.07848633 -2.94821167 28.21337891 C-2.94889348 26.43456955 -2.94703917 24.65575773 -2.94287109 22.87695312 C-2.93752283 20.14447474 -2.94281605 17.41216074 -2.94921875 14.6796875 C-2.94855797 12.9557288 -2.94727681 11.23177021 -2.9453125 9.5078125 C-2.94733673 8.68490723 -2.94936096 7.86200195 -2.95144653 7.01416016 C-2.92314951 0.2141963 -2.92314951 0.2141963 0 0 Z " fill="#41DD82" transform="translate(88.8125,46.8671875)"/>
<path d="M0 0 C1.80868813 0.00333092 1.80868813 0.00333092 3.65391541 0.00672913 C4.64899864 0.00651009 4.64899864 0.00651009 5.66418457 0.00628662 C7.86644207 0.00698571 10.06861596 0.01477787 12.27085876 0.02259827 C13.79400588 0.02446246 15.31715359 0.02588636 16.84030151 0.02688599 C20.85657903 0.03071105 24.87282059 0.04054124 28.88908386 0.05158997 C32.98443617 0.06180433 37.07979427 0.06638366 41.17515564 0.07142639 C49.21618779 0.08216352 57.25719069 0.0992398 65.29820251 0.12025452 C65.86070251 2.05775452 65.86070251 2.05775452 66.29820251 4.12025452 C65.29820251 5.12025452 65.29820251 5.12025452 62.59640503 5.24050903 C61.39061295 5.23828842 60.18482086 5.23606781 58.94248962 5.23377991 C58.2791008 5.23392593 57.61571198 5.23407196 56.93222046 5.23422241 C54.72996296 5.23352332 52.52778907 5.22573116 50.32554626 5.21791077 C48.80239915 5.21604657 47.27925144 5.21462268 45.75610352 5.21362305 C41.739826 5.20979798 37.72358444 5.1999678 33.70732117 5.18891907 C29.61196886 5.17870471 25.51661076 5.17412537 21.42124939 5.16908264 C13.38021724 5.15834551 5.33921434 5.14126923 -2.70179749 5.12025452 C-3.26429749 3.18275452 -3.26429749 3.18275452 -3.70179749 1.12025452 C-2.70179749 0.12025452 -2.70179749 0.12025452 0 0 Z " fill="#3EDE81" transform="translate(29.701797485351563,91.87974548339844)"/>
<path d="M0 0 C0.721875 0.00257812 1.44375 0.00515625 2.1875 0.0078125 C2.909375 0.00523438 3.63125 0.00265625 4.375 0 C6.1875 0.1328125 6.1875 0.1328125 7.1875 1.1328125 C7.28743532 3.1933656 7.31830906 5.2573384 7.3203125 7.3203125 C7.32224609 9.20363281 7.32224609 9.20363281 7.32421875 11.125 C7.32107666 12.11064941 7.32107666 12.11064941 7.31787109 13.11621094 C7.31252234 15.12442585 7.31781691 17.13241709 7.32421875 19.140625 C7.32292969 20.39617187 7.32164063 21.65171875 7.3203125 22.9453125 C7.31918457 24.10675781 7.31805664 25.26820312 7.31689453 26.46484375 C7.1875 29.1328125 7.1875 29.1328125 6.1875 30.1328125 C4.375 30.265625 4.375 30.265625 2.1875 30.2578125 C1.465625 30.26039062 0.74375 30.26296875 0 30.265625 C-1.8125 30.1328125 -1.8125 30.1328125 -2.8125 29.1328125 C-2.91243532 27.0722594 -2.94330906 25.0082866 -2.9453125 22.9453125 C-2.94660156 21.68976563 -2.94789062 20.43421875 -2.94921875 19.140625 C-2.94712402 18.48352539 -2.9450293 17.82642578 -2.94287109 17.14941406 C-2.93752234 15.14119915 -2.94281691 13.13320791 -2.94921875 11.125 C-2.94792969 9.86945313 -2.94664063 8.61390625 -2.9453125 7.3203125 C-2.94362061 5.57814453 -2.94362061 5.57814453 -2.94189453 3.80078125 C-2.76739426 0.2027832 -2.76739426 0.2027832 0 0 Z " fill="#41DD83" transform="translate(43.8125,56.8671875)"/>
<path d="M0 0 C0.721875 0.00257812 1.44375 0.00515625 2.1875 0.0078125 C2.909375 0.00523438 3.63125 0.00265625 4.375 0 C6.1875 0.1328125 6.1875 0.1328125 7.1875 1.1328125 C7.28682153 2.82839976 7.31830007 4.52806997 7.3203125 6.2265625 C7.32224609 7.77150391 7.32224609 7.77150391 7.32421875 9.34765625 C7.32035156 10.43175781 7.31648438 11.51585938 7.3125 12.6328125 C7.31636719 13.71691406 7.32023437 14.80101563 7.32421875 15.91796875 C7.32292969 16.94792969 7.32164063 17.97789063 7.3203125 19.0390625 C7.31918457 19.99103516 7.31805664 20.94300781 7.31689453 21.92382812 C7.1875 24.1328125 7.1875 24.1328125 6.1875 25.1328125 C4.375 25.265625 4.375 25.265625 2.1875 25.2578125 C1.465625 25.26039062 0.74375 25.26296875 0 25.265625 C-1.8125 25.1328125 -1.8125 25.1328125 -2.8125 24.1328125 C-2.91182153 22.43722524 -2.94330007 20.73755503 -2.9453125 19.0390625 C-2.94724609 17.49412109 -2.94724609 17.49412109 -2.94921875 15.91796875 C-2.94535156 14.83386719 -2.94148438 13.74976562 -2.9375 12.6328125 C-2.94136719 11.54871094 -2.94523437 10.46460937 -2.94921875 9.34765625 C-2.94792969 8.31769531 -2.94664063 7.28773437 -2.9453125 6.2265625 C-2.94418457 5.27458984 -2.94305664 4.32261719 -2.94189453 3.34179688 C-2.7829167 0.62777532 -2.7152402 0.19896157 0 0 Z " fill="#41DD83" transform="translate(73.8125,61.8671875)"/>
<path d="M0 0 C0.721875 0.00257812 1.44375 0.00515625 2.1875 0.0078125 C2.909375 0.00523438 3.63125 0.00265625 4.375 0 C6.1875 0.1328125 6.1875 0.1328125 7.1875 1.1328125 C7.28630797 2.60933914 7.31829245 4.09048486 7.3203125 5.5703125 C7.32224609 6.91222656 7.32224609 6.91222656 7.32421875 8.28125 C7.32035156 9.22226563 7.31648438 10.16328125 7.3125 11.1328125 C7.31636719 12.07382813 7.32023437 13.01484375 7.32421875 13.984375 C7.32292969 14.87898438 7.32164063 15.77359375 7.3203125 16.6953125 C7.31918457 17.52160156 7.31805664 18.34789063 7.31689453 19.19921875 C7.1875 21.1328125 7.1875 21.1328125 6.1875 22.1328125 C4.375 22.265625 4.375 22.265625 2.1875 22.2578125 C1.465625 22.26039062 0.74375 22.26296875 0 22.265625 C-1.8125 22.1328125 -1.8125 22.1328125 -2.8125 21.1328125 C-2.91130797 19.65628586 -2.94329245 18.17514014 -2.9453125 16.6953125 C-2.94660156 15.80070312 -2.94789062 14.90609375 -2.94921875 13.984375 C-2.94341797 12.57285156 -2.94341797 12.57285156 -2.9375 11.1328125 C-2.94136719 10.19179687 -2.94523437 9.25078125 -2.94921875 8.28125 C-2.94792969 7.38664062 -2.94664063 6.49203125 -2.9453125 5.5703125 C-2.94362061 4.33087891 -2.94362061 4.33087891 -2.94189453 3.06640625 C-2.77169935 0.52311225 -2.54623458 0.18657753 0 0 Z " fill="#40DD83" transform="translate(58.8125,64.8671875)"/>
<path d="M0 0 C0.721875 0.00257812 1.44375 0.00515625 2.1875 0.0078125 C2.909375 0.00523438 3.63125 0.00265625 4.375 0 C6.1875 0.1328125 6.1875 0.1328125 7.1875 1.1328125 C7.2858721 2.46324875 7.31828592 3.79874594 7.3203125 5.1328125 C7.32224609 6.339375 7.32224609 6.339375 7.32421875 7.5703125 C7.32035156 8.4159375 7.31648438 9.2615625 7.3125 10.1328125 C7.31636719 10.9784375 7.32023437 11.8240625 7.32421875 12.6953125 C7.32292969 13.4996875 7.32164063 14.3040625 7.3203125 15.1328125 C7.31918457 15.8753125 7.31805664 16.6178125 7.31689453 17.3828125 C7.1875 19.1328125 7.1875 19.1328125 6.1875 20.1328125 C4.375 20.265625 4.375 20.265625 2.1875 20.2578125 C1.465625 20.26039062 0.74375 20.26296875 0 20.265625 C-1.8125 20.1328125 -1.8125 20.1328125 -2.8125 19.1328125 C-2.9108721 17.80237625 -2.94328592 16.46687906 -2.9453125 15.1328125 C-2.94660156 14.3284375 -2.94789062 13.5240625 -2.94921875 12.6953125 C-2.94535156 11.8496875 -2.94148438 11.0040625 -2.9375 10.1328125 C-2.94136719 9.2871875 -2.94523437 8.4415625 -2.94921875 7.5703125 C-2.94792969 6.7659375 -2.94664063 5.9615625 -2.9453125 5.1328125 C-2.94418457 4.3903125 -2.94305664 3.6478125 -2.94189453 2.8828125 C-2.76236606 0.45477461 -2.42428847 0.17764183 0 0 Z " fill="#42DD83" transform="translate(28.8125,66.8671875)"/>
<path d="M0 0 C1.80868813 0.00333092 1.80868813 0.00333092 3.65391541 0.00672913 C4.64899864 0.00651009 4.64899864 0.00651009 5.66418457 0.00628662 C7.86644207 0.00698571 10.06861596 0.01477787 12.27085876 0.02259827 C13.79400588 0.02446246 15.31715359 0.02588636 16.84030151 0.02688599 C20.85657903 0.03071105 24.87282059 0.04054124 28.88908386 0.05158997 C32.98443617 0.06180433 37.07979427 0.06638366 41.17515564 0.07142639 C49.21618779 0.08216352 57.25719069 0.0992398 65.29820251 0.12025452 C65.79320251 1.11025452 65.79320251 1.11025452 66.29820251 2.12025452 C44.18820251 2.12025452 22.07820251 2.12025452 -0.70179749 2.12025452 C-1.03179749 2.78025452 -1.36179749 3.44025452 -1.70179749 4.12025452 C20.40820251 4.12025452 42.51820251 4.12025452 65.29820251 4.12025452 C65.29820251 4.45025452 65.29820251 4.78025452 65.29820251 5.12025452 C42.85820251 5.12025452 20.41820251 5.12025452 -2.70179749 5.12025452 C-3.03179749 3.80025452 -3.36179749 2.48025452 -3.70179749 1.12025452 C-2.70179749 0.12025452 -2.70179749 0.12025452 0 0 Z " fill="#4ADD88" transform="translate(29.701797485351563,91.87974548339844)"/>
<path d="M0 0 C2.14576637 -0.02685938 4.29162645 -0.04633088 6.4375 -0.0625 C7.63246094 -0.07410156 8.82742187 -0.08570312 10.05859375 -0.09765625 C13 0 13 0 14 1 C14.07258946 3.18639453 14.08373783 5.37500389 14.0625 7.5625 C14.05347656 8.76003906 14.04445313 9.95757812 14.03515625 11.19140625 C14.02355469 12.11824219 14.01195313 13.04507813 14 14 C13.67 14 13.34 14 13 14 C12.67 10.04 12.34 6.08 12 2 C8.7 2 5.4 2 2 2 C1.67 2.66 1.34 3.32 1 4 C2.65 4 4.3 4 6 4 C5.67 4.66 5.34 5.32 5 6 C3.02 5.34 1.04 4.68 -1 4 C-0.67 2.68 -0.34 1.36 0 0 Z " fill="#4EE08B" transform="translate(82,27)"/>
</svg>
