<?xml version="1.0" encoding="UTF-8"?>
<svg version="1.1" xmlns="http://www.w3.org/2000/svg" width="444" height="393">
<path d="M0 0 C146.52 0 293.04 0 444 0 C444 129.69 444 259.38 444 393 C297.48 393 150.96 393 0 393 C0 263.31 0 133.62 0 0 Z " fill="#FEFEFE" transform="translate(0,0)"/>
<path d="M0 0 C29.18567955 25.85900995 51.15708176 61.73470576 53.77636719 101.46533203 C56.07809948 146.53344962 43.40321061 187.00854225 13.40234375 220.81665039 C7.72100337 227.0855576 1.67717074 232.59929594 -5.11083984 237.67382812 C-6.07119141 238.39957031 -7.03154297 239.1253125 -8.02099609 239.87304688 C-26.77116384 253.45565891 -47.56360104 261.86502437 -70.11083984 266.67382812 C-70.89845703 266.85333008 -71.68607422 267.03283203 -72.49755859 267.21777344 C-80.46018396 268.87812828 -88.24869326 268.9714067 -96.36083984 268.92382812 C-97.66408203 268.9315625 -98.96732422 268.93929688 -100.31005859 268.94726562 C-142.19984951 268.86423333 -178.85790259 251.0726683 -208.60058594 222.19970703 C-212.45593398 218.30447178 -215.8238866 214.04994931 -219.11083984 209.67382812 C-219.71283203 208.87589844 -220.31482422 208.07796875 -220.93505859 207.25585938 C-229.37894453 195.6241693 -235.81667612 183.00083195 -241.11083984 169.67382812 C-241.43922852 168.85575684 -241.76761719 168.03768555 -242.10595703 167.19482422 C-255.56022779 132.17694608 -253.0674195 90.74809595 -238.33276367 56.60400391 C-230.74488918 39.6705819 -220.89912166 25.16227352 -208.11083984 11.67382812 C-207.21751953 10.71605469 -206.32419922 9.75828125 -205.40380859 8.77148438 C-151.98982936 -47.36816143 -58.31225446 -49.9136324 0 0 Z " fill="#FE0001" transform="translate(320.11083984375,77.326171875)"/>
<path d="M0 0 C1.02156189 -0.01283524 2.04312378 -0.02567047 3.09564209 -0.03889465 C4.75807953 -0.04997505 4.75807953 -0.04997505 6.45410156 -0.0612793 C7.59123596 -0.06935104 8.72837036 -0.07742279 9.89996338 -0.08573914 C12.31089753 -0.09958902 14.72185137 -0.11030711 17.1328125 -0.11816406 C20.81580936 -0.13536301 24.49790559 -0.17924095 28.18066406 -0.22338867 C30.52180329 -0.23351658 32.86295015 -0.24203237 35.20410156 -0.2487793 C36.85439362 -0.27504143 36.85439362 -0.27504143 38.5380249 -0.30183411 C44.56307087 -0.28478984 48.44321895 -0.06453153 53.09472656 4.17700195 C54.2582666 5.15092896 54.2582666 5.15092896 55.4453125 6.14453125 C58.14161413 11.10171932 57.58257981 16.15227 57.48535156 21.6965332 C57.47969177 22.91024094 57.47403198 24.12394867 57.46820068 25.37443542 C57.44583099 29.2465274 57.39563038 33.11769019 57.34472656 36.98950195 C57.32466247 39.6164417 57.30641155 42.24339598 57.29003906 44.87036133 C57.24596402 51.30622461 57.17904448 57.74154689 57.09472656 64.17700195 C57.75791901 64.16811951 58.42111145 64.15923706 59.10440063 64.15008545 C66.0149879 64.0615024 72.92541352 64.0012218 79.83642578 63.95727539 C82.41461744 63.93717632 84.9927636 63.90989254 87.57080078 63.87524414 C91.27941117 63.82665348 94.98741812 63.80401538 98.69628906 63.78637695 C99.84650543 63.76573181 100.9967218 63.74508667 102.18179321 63.72381592 C108.285444 63.72210951 112.45094035 63.76682503 117.09472656 68.17700195 C122.08112363 73.53821056 121.67775633 78.95641626 121.62597656 85.8918457 C121.62980347 87.02094864 121.63363037 88.15005157 121.63757324 89.31336975 C121.64028975 91.69622695 121.63294702 94.07911409 121.61621094 96.46191406 C121.59481925 100.09874371 121.61601305 103.73359332 121.64160156 107.37036133 C121.63895785 109.69002713 121.63383198 112.0096917 121.62597656 114.3293457 C121.63407349 115.4118309 121.64217041 116.4943161 121.6505127 117.60960388 C121.5717107 123.99184165 121.04719046 128.0666558 117.09472656 133.17700195 C113.45202593 135.82053177 110.95213511 136.54843236 106.47827148 136.51757812 C105.37750778 136.51735153 104.27674408 136.51712494 103.1426239 136.51689148 C101.96537247 136.50140762 100.78812103 136.48592377 99.57519531 136.4699707 C98.36148758 136.46572586 97.14777985 136.46148102 95.89729309 136.45710754 C92.02537746 136.44033103 88.15398457 136.40267929 84.28222656 136.36450195 C81.65528096 136.34945385 79.02832719 136.33576567 76.40136719 136.32348633 C69.96564232 136.29043076 63.53022179 136.24024079 57.09472656 136.17700195 C57.10360901 136.83797379 57.11249146 137.49894562 57.12164307 138.1799469 C57.21030428 145.07446626 57.27053907 151.96882301 57.31445312 158.86376953 C57.33453805 161.43512554 57.36181136 164.00643604 57.39648438 166.57763672 C57.44513737 170.27884161 57.4677274 173.97944128 57.48535156 177.6809082 C57.5059967 178.82596329 57.52664185 179.97101837 57.5479126 181.15077209 C57.54974029 187.68779817 57.27429632 192.0089735 53.09472656 197.17700195 C47.76764825 201.24456517 41.54206585 200.6275718 35.12597656 200.6105957 C33.97230591 200.61583755 32.81863525 200.62107941 31.63000488 200.6264801 C29.19589033 200.63289076 26.76174477 200.63157575 24.32763672 200.62304688 C20.60751151 200.61453122 16.8889192 200.64332355 13.16894531 200.67504883 C10.80045619 200.67666085 8.43196435 200.67608329 6.06347656 200.6730957 C4.9539563 200.68432968 3.84443604 200.69556366 2.70129395 200.70713806 C-3.26468518 200.65339024 -7.38975352 200.51582368 -11.90527344 196.17700195 C-16.03286912 190.67462654 -15.28672613 184.35158334 -15.19824219 177.77856445 C-15.19399734 176.58846771 -15.1897525 175.39837097 -15.18537903 174.17221069 C-15.16862512 170.3819082 -15.1309776 166.59214298 -15.09277344 162.80200195 C-15.07772241 160.2277909 -15.06403474 157.65357148 -15.05175781 155.0793457 C-15.01873226 148.77838203 -14.96856489 142.47773039 -14.90527344 136.17700195 C-15.92218513 136.18699471 -15.92218513 136.18699471 -16.9596405 136.19718933 C-24.01609555 136.26356348 -31.0724619 136.30881142 -38.12915039 136.34179688 C-40.76265057 136.35688252 -43.39612564 136.37735361 -46.02954102 136.40332031 C-49.81500447 136.43971214 -53.60013571 136.45673086 -57.38574219 136.4699707 C-58.56299362 136.48545456 -59.74024506 136.50093842 -60.95317078 136.51689148 C-62.05393448 136.51711807 -63.15469818 136.51734467 -64.28881836 136.51757812 C-65.73776741 136.52757088 -65.73776741 136.52757088 -67.21598816 136.5377655 C-71.90085559 135.90929763 -74.33999289 133.90788257 -77.18457031 130.22998047 C-79.80091029 125.19220961 -79.47806022 119.88243601 -79.43652344 114.3293457 C-79.44035034 113.19928604 -79.44417725 112.06922638 -79.44812012 110.90492249 C-79.45083382 108.52384547 -79.44351081 106.14273837 -79.42675781 103.76171875 C-79.40532218 100.12277693 -79.42659001 96.485805 -79.45214844 92.84692383 C-79.44950546 90.52856011 -79.4443811 88.21019761 -79.43652344 85.8918457 C-79.44462036 84.80733627 -79.45271729 83.72282684 -79.46105957 82.60545349 C-79.38742618 76.66023359 -79.13707406 72.72689351 -74.90527344 68.17700195 C-69.44369807 62.99017539 -63.60613576 63.65895219 -56.50683594 63.78637695 C-55.3167392 63.79203674 -54.12664246 63.79769653 -52.90048218 63.80352783 C-49.10999857 63.82586744 -45.32046999 63.87606233 -41.53027344 63.92700195 C-38.95606837 63.94706994 -36.38184844 63.96532018 -33.80761719 63.98168945 C-27.50651165 64.02572451 -21.20596079 64.0926139 -14.90527344 64.17700195 C-14.91193527 63.5115889 -14.91859711 62.84617584 -14.92546082 62.16059875 C-14.99184023 55.23390536 -15.03708507 48.30730236 -15.07006836 41.38037109 C-15.08515306 38.79537282 -15.10562345 36.21040013 -15.1315918 33.62548828 C-15.16798785 29.90952235 -15.18500328 26.19389488 -15.19824219 22.4777832 C-15.21372604 21.32240555 -15.2292099 20.16702789 -15.24516296 18.97663879 C-15.24538956 17.89589584 -15.24561615 16.81515289 -15.24584961 15.70166016 C-15.25251144 14.75345901 -15.25917328 13.80525787 -15.26603699 12.82832336 C-14.66176657 8.38742267 -12.65439664 5.83476867 -9.34277344 2.92700195 C-5.91103826 0.46319208 -4.17434926 0.04559645 0 0 Z " fill="#FEFEFE" transform="translate(200.9052734375,93.822998046875)"/>
</svg>
